<?xml version="1.0" encoding="UTF-8"?>
<svg width="167mm" height="155mm" clip-rule="evenodd" fill-rule="evenodd" image-rendering="optimizeQuality" shape-rendering="geometricPrecision" text-rendering="geometricPrecision" version="1" viewBox="0 0 167 155" xmlns="http://www.w3.org/2000/svg" xmlns:cc="http://creativecommons.org/ns#" xmlns:dc="http://purl.org/dc/elements/1.1/" xmlns:rdf="http://www.w3.org/1999/02/22-rdf-syntax-ns#">
<g stroke="#323232">
<g transform="translate(0 -52.917)" stroke-width=".282">
<path d="m51.948 169.51c0.964-2.619 0.106-3.51-0.257-4.87" fill="none"/>
<path d="m51.895 169.5c0.964-2.619 0.106-3.51-0.257-4.87" fill="none"/>
<path d="m22.924 176.2c-1.341-1.065-2.573-1.204-3.69-0.36201 0.838-4.008 3.158-2.843 5.653-1.067z" fill="#ea1c24"/>
<path d="m35.025 176.86 19.035-14.638 4.371 6.02-17.569 10.132c0.905-0.22801 1.721-0.57601 2.894-0.445 2.783-1.8 4.012-0.44 4.249-0.65301 0.276 1.029 0.973 2.03-0.227 3.158-0.097 1.017-1.492 0.86699-3.397 0.257-1.22 0.964-1.204 2.625-4.266 2.552-1.6-0.493-3.845-0.806-3.595-1.817l-3.26 1.043c-1.886 3.71-3.876 8.358-6.36 8.624l-2.555-1.022c-1.093-2.25 1.373-3.966 3.085-5.795l3.663-2.834c-2.837 1.026-6.956 4.645-8.985 4.27l-2.195-2.947c1.724-3.499 5.912-2.732 8.819-2.763l-4.07-1.25-2.253-0.46499c-0.9-1.157-0.126-1.807 0.421-2.747 0.106-0.43601 1.313-1.7 3.21-1.561 0.708-0.111 2.112 1.625 3.404 3.065 1.23 0.235 2.165-0.282 3.836 1.087-1.244-0.868-1.193-1.201 0.154-1z" fill="#eac102"/>
<path d="m20.58 182.78c-2.276 1.579-4.944 3.09-1.96 5.582-0.2-2.286 1.881-2.573 4.15-3.33-0.291-1.416-1.022-2.167-2.19-2.252zm4.243 6.281c-1.626 3.176-2.11 5.941 2.223 6.974-2.427-2.59-0.472-3.876 0.329-5.506-0.184-0.774-0.897-1.322-2.551-1.468zm22.49-9.203c-0.403-0.742-0.288-1.49 0.345-2.247 3.819 0.072 3.513 1.819 3.816 3.319-1.271-0.562-2.238-1.664-4.161-1.072z" fill="#ea1c24"/>
<g fill="none">
<path d="m55.593 166.54-17.741 11.257c-1.764 0.39701-2.007-0.11599-2.724-0.34499m20.465-10.912m-18.003 9.175 2.787 0.35399m-2.787-0.35399m2.143-1.339 2.787 0.35399m-2.787-0.35399m2.336-1.757 3.03 0.45499m-3.03-0.45499m2.37-1.559 3.156 0.474m-3.156-0.474m2.21-1.776 3.597 0.54m-3.597-0.54m2.054-1.606 4.04 0.606m-4.04-0.606m-12.611 11.068c1.409 1.619 3.354-0.256 5.032-0.394m-5.032 0.394m-4.571 5.381c-1.407 1.875-1.061 3.819-4.22 5.624m4.22-5.624m-8.974-7e-3c1.398 1.26 3.02-1.162 4.53-1.746m-4.53 1.746m1.115-7.686c-1.656 1.51 0.934 1.66 2.717 2.068m-2.717-2.068m14.392 5.097c0.803 1.113 2.45 0.971 4.814-0.235"/>
<path d="m115.84 169.51c-0.964-2.619-0.106-3.51 0.257-4.87"/>
<path d="m115.89 169.5c-0.964-2.619-0.106-3.51 0.257-4.87"/>
</g>
<path d="m144.86 176.2c1.34-1.065 2.573-1.204 3.69-0.36201-0.839-4.008-3.158-2.843-5.653-1.067z" fill="#ea1c24"/>
<path d="m132.76 176.86-19.035-14.638-4.37 6.02 17.568 10.132c-0.905-0.22801-1.721-0.57601-2.894-0.445-2.783-1.8-4.012-0.44-4.248-0.65301-0.277 1.029-0.974 2.03 0.226 3.158 0.098 1.017 1.492 0.86699 3.397 0.257 1.22 0.964 1.204 2.625 4.266 2.552 1.6-0.493 3.845-0.806 3.595-1.817l3.26 1.043c1.887 3.71 3.876 8.358 6.36 8.624l2.555-1.022c1.093-2.25-1.373-3.966-3.085-5.795l-3.663-2.834c2.837 1.026 6.956 4.645 8.985 4.27l2.195-2.947c-1.724-3.499-5.912-2.732-8.819-2.763l4.07-1.25 2.253-0.46499c0.9-1.157 0.127-1.807-0.421-2.747-0.106-0.43601-1.313-1.7-3.21-1.561-0.708-0.111-2.112 1.625-3.404 3.065-1.23 0.235-2.165-0.282-3.836 1.087 1.244-0.868 1.193-1.201-0.154-1z" fill="#eac102"/>
<path d="m147.21 182.78c2.276 1.579 4.943 3.09 1.96 5.582 0.199-2.286-1.882-2.573-4.151-3.33 0.292-1.416 1.022-2.167 2.191-2.252zm-4.244 6.281c1.626 3.176 2.111 5.941-2.223 6.974 2.427-2.59 0.472-3.876-0.328-5.506 0.183-0.774 0.896-1.322 2.551-1.468zm-22.489-9.203c0.403-0.742 0.288-1.49-0.345-2.247-3.819 0.072-3.513 1.819-3.817 3.319 1.272-0.562 2.239-1.664 4.162-1.072z" fill="#ea1c24"/>
<path d="m112.19 166.54 17.741 11.257c1.764 0.39701 2.007-0.11599 2.724-0.34499m-20.465-10.912m18.003 9.175-2.787 0.35399m2.787-0.35399m-2.142-1.339-2.787 0.35399m2.787-0.35399m-2.336-1.757-3.03 0.45499m3.03-0.45499m-2.371-1.559-3.156 0.474m3.156-0.474m-2.209-1.776-3.598 0.54m3.598-0.54m-2.054-1.606-4.04 0.606m4.04-0.606m12.611 11.068c-1.409 1.619-3.354-0.256-5.032-0.394m5.032 0.394m4.57 5.381c1.407 1.875 1.062 3.819 4.22 5.624m-4.22-5.624m8.975-7e-3c-1.398 1.26-3.02-1.162-4.53-1.746m4.53 1.746m-1.115-7.686c1.656 1.51-0.934 1.66-2.717 2.068m2.717-2.068m-14.392 5.097c-0.803 1.113-2.45 0.971-4.814-0.235" fill="none"/>
</g>
<g stroke-width=".282">
<path d="M54.055 78.566l.054 11.551c.331 1.2 2.39 1.878 4.294 2.603 1.159-.983 2.791-1.173 3.364-3.135L60.694 78.06l-6.639.506z"/>
<path d="m60.575 87.511c0.382 3.242-1.22 2.74-2.224 3.889-1.662-1.044-3.524-0.354-3.328-3.248m5.552-0.64m-2.188-8.226-0.208 7.55-1.23-7.25"/>
<path d="M33.996 74.573L24.467 85.64c-.836 1.185-3.24 1.014-5.984.55-.085-1.842-1.495-3.815.588-5.443l7.139-6.345c-3.557 1.713-6.84 7.375-14.43 4.528.84-5.815 2.043-4.732 7.205-7.781-6.842 1.881-9.438.373-12.057-.994 1.659-4.097 3.81-4.545 5.937-5.176C7.33 65.04 5.566 62.34 3.608 61c1.586-2.49 5.747-4.091 8.236-3.725-6.442-1.524-7.895-4.082-9.896-7.07 3.65-2.022 6.6-2.344 9.576-1.705-5.923-2.521-8.613-5.753-9.959-9.28 3.122-1.08 5.891-.424 8.683.127-5.394-3.068-6.69-7.213-6.895-10.606 4.044-.356 6.595.948 9.33 2.048-8.81-5.887-6.79-13.838-5.627-16.189 4.325 4.205 8.93 8.41 13.727 12.615C7.478 12.345 10.156 6.22 14.078.776c4.152 7.661 7.604 14.853 15.385 23.926l4.43 10.861-2.897 17.673 5.614 17.317-2.614 4.02z"/>
<path d="m30.84 35.786c-3.654-2.638-7.164-5.489-10.338-8.838m10.337 8.838m-2.589-5.718c-4.828-3.83-7.177-9.346-10.214-14.394 3.27 4.226 6.116 8.75 10.15 12.437m0.064 1.957m5.554 42.675-8.044 7.196 7.98-8.838m0.064 1.642m-3.128-3.662-9.257 4.735 8.108-5.303m1.149 0.568m-2.681-2.967-9.32 1.515 9.767-2.651m-0.447 1.136m-2.745-4.734-10.087-0.253 9.895-0.82m0.192 1.073m-0.703-6.124-11.3-2.21 10.088 1.01m1.212 1.2m0.767-6.123-13.151-4.925 11.937 3.6m1.213 1.326m-0.319-6.062-11.171-6.944 13.15 6.881m-1.979 0.063m0-6.881-9.703-8.396 10.533 7.575"/>
<path d="m18.97 12.767c-2.307-3.295-4.237-6.919-5.02-9.403-3.128 8.501 0.928 12.394 2.873 16.414m2.147-7.01m-2.53 12.439c-3.139-2.778-6.414-5.556-8.746-8.333-0.763 8.251 2.614 10.286 5.682 13.067m3.064-4.734m-1.085 8.838c-2.873-2.187-6.192-3.16-10.15-3.851 1.103 3.213 2.629 6.564 7.15 8.901m3-5.05m-2.618 7.954c-2.68-0.926-5.302-1.97-8.682-1.515 1.896 3.679 5.098 5.268 8.108 6.755m0.574-5.24m0.376 8.533c-3.506-0.9-6.192-0.384-8.739 0.494 1.963 2.541 5.03 3.991 8.427 5.114m0.311-5.608m-0.439 7.943c-2.276 0.13-4.553 0.842-6.83 2.4 2.333 3.026 5.34 2.623 8.44 2.71m-1.61-5.11m1.66 7.387c-2.721 0.896-5.086 1.955-5.618 3.85 1.699 0.626 2.221 1.371 7.781 0.724m-2.163-4.574m1.465 8.333c-2.144 1.18-2.442 1.345-2.422 4.166 1.798 0.559 2.754 0.76 4.96-0.128m-2.538-4.038m5.509 6.186c-3.143 2.196-1.902 3.51-2.058 4.924 2.54-0.135 3.466 1.225 5.5-1.504m-3.442-3.42m4.645-5.808 7.405-5.366m-7.405 5.366m-7.022-3.409 9.065-3.409m-9.065 3.41m-6.384-6.125 16.023-1.893m-16.023 1.894m-1.163-7.828 16.025 0.357m-16.025-0.357m-0.135-8.839 13.271 3.126m-13.271-3.125m1.129-17.812 13.18 8.303m-13.18-8.303m-2.303 8.66 12.91 5.401"/>
<path d="m41.337 75.457-8.334 14.396c-0.728 1.456-3.091 1.296-5.2 1.386-1.586-1.93-1.877-3.86-1.056-5.789l9.802-13.402 4.788 3.41z"/>
<path d="m38.783 75.71-6.383 8.585 6.192-10.353m0.192 1.768m-10.598 9.91c-1.387 2.214-0.796 2.821 0.383 4.61 2.328-0.6 2.69 0.721 4.214-2.336"/>
<path d="m47.083 78.109-4.713 13.728c-1.622 2.19-3.243 1.657-4.864 2.37-2.16-2.018-2.865-4.184-2.62-4.855l6.705-13.832 5.49 2.589z"/>
<path d="m44.529 78.55-4.596 8.902 3.32-9.66m1.276 0.759m-7.979 10.1c-0.648 0.972-0.353 2.374 1.212 4.356 1.407-0.749 3.596-0.536 3.766-2.967"/>
<path d="M46.891 78.298l-1.734 11.423c.142 1.235 2.07 2.218 3.84 3.223 1.297-.797 2.94-.738 3.81-2.59l.723-11.551-6.639-.505z"/>
<path d="m51.95 88.124c-0.124 3.262-1.63 2.524-2.8 3.507-1.48-1.283-3.427-0.883-2.786-3.713m5.586 0.206m-0.89-8.459-1.374 7.43-0.093-7.35"/>
<path d="M38.528 34.045c-4.23-3.38-7.321-7.019-8.427-11.11-3.331 4.755-1.705 9.51 1.916 14.266-2.285-1.445-4.618-2.1-7.023-1.641-.047 3.69 2.363 5.296 3.83 7.701-2.124-.394-4.248-.764-6.256 1.516.335 1.57 2.297 4.57 5.108 5.555-1.618.118-3.235.781-4.852 3.03 1.624 1.922 3.378 3.284 5.362 3.662-1.21.733-2.466 1.11-3.447 3.661 1.266 1.546 2.863 2.325 4.852 2.68-.734 1.082-1.718 1.633-1.66 4.39 2.88 1.658 4.39 1.052 5.745.995-.521 1.571-.625 3.406.173 5.808 1.815-.088 3.812.113 5.062-.869-.582 1.69.35 3.08.894 4.546 2.039-.005 3.779-.178 4.754-1.352-.285 1.43.87 2.951 2.013 4.382 1.77-.407 3.733-.602 4.469-2.146.396 1.524 2.008 2.327 3.575 3.156 1.693-.526 3.235-1.488 3.62-2.838.652 1.275 1.944 2.285 4.04 2.964 1.117-.918 2.78-2.005 2.711-3.35l-3.094-10.286-14.529-6.014-2.54-8.82 2.57-10.055-8.866-9.831z"/>
<path d="M58.15 79.487l-.452-8.749m.451 8.75zM51.062 79.264l1.174-8.124m-1.174 8.124zM44.472 76.854l3.34-7.142m-3.34 7.142zM38.739 73.907l5.326-7.097m-5.326 7.098zM33.728 68.774l5.914-3.883m-5.914 3.883zM29.395 63.373l9.254-1.875m-9.254 1.875zM28.176 56.99l8.802-.18m-8.802.18zM27.499 50.301l11.736 1.957M27.5 50.3zM28.898 43.33l7.584 3.482m-7.584-3.482zM31.877 37.036l7.539 5.67m-7.539-5.67zM60.722 71.14l.542 5.49-1.806-5.356m1.264-.134zM63.741 77.522c.307 1.28-.197 1.8-1.664 3.17-1.145-.709-2.822-.76-3.049-2.366m4.713-.804zM55.621 70.381l-.722 6.16-.541-5.535m1.264-.625zM50.656 70.292l-1.986 4.82 1.264-5.98m.722 1.16zM45.6 69.399l-2.708 4.375 2.076-4.821m.632.446zM56.917 78.447c.29 1.408-1.252 1.792-2.198 2.513-.9-.77-2.581-1.382-2.47-2.461m4.668-.052zM50.319 78.266c-1.076 1.55-2.153 1.092-3.23 1.623-.526-.993-1.823-1.77-1.29-3.062m4.52 1.439zM43.795 75.995c-.57 1.171-2.149.633-3.25.903-.18-1.017-1.024-2.034-.505-3.051m3.755 2.148zM42.462 65.638L37.99 69.6l3.352-4.059m1.12.098zM38.027 72.644c-.81 1.024-2.459.67-3.594.7.045-1.031-.432-2.708.295-3.592m3.3 2.892zM37.379 36.76l-3.83-3.978 3.894 5.303m-.064-1.326zM39.294 45.03l-6.958-3.915 6.128 4.23m.83-.316zM36.613 48.501l-6.256-1.452 6.639 2.273m-.383-.82zM33.421 36.633c-2.296-2.826-4.821-5.559-3.447-10.858.546 1.138 1.39 2.797 2.362 3.85m1.085 7.008zM32.591 39.032c-4.108-2.552-4.352-2.255-6.32-2.083 1.145 2.57.881 2.46 3.767 5.366m2.553-3.283zM29.335 44.84c-1.595-.534-3.256-.496-5.362.315 1.031 1.879 2.671 3.025 4.469 3.725m.893-4.04zM36.74 53.678l-6.702.126 6.256.947m.447-1.073zM29.016 51.91c-2.17-.494-2.927.152-4.213 1.389.556.854.682 1.857 3.639 2.651m.574-4.04zM29.718 58.097c-2.598.795-2.802 1.216-3.383 2.525 1.262.715 1.702 1.78 4.022 1.389m-.639-3.914zM38.656 58.539l-6.129 1.2 7.214-.253m-1.085-.947zM38.337 63.21l-5.108 1.957 5.235-1.136m-.127-.82zM31.442 63.905c-2.285.941-1.817 1.581-2.234 2.967 1.237.626 1.13 1.004 4.245.694m-2.01-3.661z"/>
<path d="M61.31 59.132c-4.74 6.256-12.238 2.232-12.956-2.812-.425-5.047 7.433-4.316 3.476-10.847L38.378 31.099c-1.588 5.99-1.445 11.037 3.737 14.016-2.487.08-5.277-.255-5.633 1.608-.344 3.02 2.243 4.21 3.656 5.29-.976.306-2.325.207-4.108 2.745.734 2.124 1.92 3.96 4.334 4.422-.732.602-1.878.422-2.077 4.952 2.289 1.544 4.01 1.547 5.625 1.26.009 1.255-.077 2.5 1.417 3.918 3.951.746 3.421.016 4.618-.145.957.823 1.213 1.746 3.237 2.418 1.933-.687 2.173-1.374 3.028-2.061 1.111.687.904 1.483 3.833 2.02 2.28-1.306 1.814-2.118 2.413-3.122.986.388 1.509 1.005 3.43.931 2.073-2.217.391-3.7.164-5.237l-1.764-5.428-2.979.446z"/>
<path d="M62.468 68.418l-1.564-4.545m1.564 4.545zM56.212 69.523l-.415-4.356m.415 4.356zM58.86 65.988l-.414-1.515m.415 1.515zM53.307 66.114l.255-1.23m-.255 1.23zM49.892 69.081l1.34-4.261m-1.34 4.261zM43.885 65.382l2.663-2.947m-2.663 2.947zM40.364 59.132l3.25-.402m-3.25.402zM40.138 52.035l4.198 1.473m-4.198-1.474zM46.232 48.865c-1.226-1.524-2.566-2.863-4.153-3.794m4.153 3.794zM42.658 37.292l-3.866-4.058c.005 5.66.742 7.496 2.483 9.82m1.383-5.762zM41.684 46.32c-1.204-.112-2.505-.55-4.029.447-.237 2.115 1.125 3.13 2.255 3.84m1.774-4.286zM40.635 53.15c-.728.192-2.097.106-3.205 1.83.348 1.814 1.433 2.26 2.437 2.858m.768-4.687zM40.5 60.293c-.554.68-1.233.986-1.22 3.348 1.456.91 2.768 1.288 3.883.937m-2.664-4.285zM49.076 63.239l-.677 1.116m.677-1.116zM45.141 65.382c-.112.58-.662 1.713.82 3.035 2.354.658 2.419-.038 3.386-.61m-4.206-2.426zM50.951 68.101c-.21 1.269 1.326 1.675 2.188 2.414.782-.608 1.898-.358 2.302-1.941m-4.49-.473zM57.156 69.087c.499.442.933.889 2.754 1.25.774-.729 1.494-1.457 1.516-2.186m-4.27.936zM62.934 67.614c.55.537 1.282.859 2.257.892.913-.662.825-1.325.93-1.988m-3.187 1.095zM43.667 40.926c1.79 1.934 5.554 4.225 4.565 5.145-1.411.503-3.033-3.556-4.565-5.145zM41.699 48.86c1.57.944 4.516 1.735 4.046 2.55-.832.62-2.716-1.787-4.046-2.55zM40.862 55.854c1.529.091 4.017-.389 3.987.312-.375.694-2.705-.26-3.987-.312zM42.447 62.722c1.188-.955 2.694-2.972 3.15-2.435.2.761-2.17 1.617-3.15 2.435z"/>
<path d="M113.733 78.566l-.054 11.551c-.331 1.2-2.39 1.878-4.294 2.603-1.159-.983-2.791-1.173-3.364-3.135l1.073-11.525 6.639.506z"/>
<path d="m107.21 87.511c-0.382 3.242 1.221 2.74 2.224 3.889 1.663-1.044 3.525-0.354 3.329-3.248m-5.553-0.64m2.189-8.226 0.208 7.55 1.23-7.25"/>
<path d="M133.792 74.573l9.528 11.066c.837 1.185 3.242 1.014 5.985.55.085-1.842 1.495-3.815-.589-5.443l-7.138-6.345c3.557 1.713 6.84 7.375 14.43 4.528-.84-5.815-2.043-4.732-7.206-7.781 6.842 1.881 9.439.373 12.058-.994-1.66-4.097-3.81-4.545-5.937-5.176 5.534.062 7.298-2.637 9.256-3.977-1.586-2.49-5.747-4.091-8.235-3.725 6.442-1.524 7.895-4.082 9.895-7.07-3.65-2.022-6.598-2.344-9.576-1.705 5.924-2.521 8.614-5.753 9.96-9.28-3.122-1.08-5.892-.424-8.683.127 5.394-3.068 6.69-7.213 6.895-10.606-4.044-.356-6.595.948-9.33 2.048 8.81-5.887 6.79-13.838 5.627-16.189-4.326 4.205-8.93 8.41-13.727 12.615C160.31 12.345 157.632 6.22 153.71.776c-4.152 7.661-7.605 14.853-15.385 23.926l-4.43 10.861 2.897 17.673-5.615 17.317 2.615 4.02z"/>
<path d="m136.95 35.786c3.654-2.638 7.163-5.489 10.337-8.838m-10.337 8.838m2.589-5.718c4.828-3.83 7.177-9.346 10.214-14.394-3.27 4.226-6.116 8.75-10.15 12.437m-0.064 1.957m-5.554 42.675 8.044 7.196-7.98-8.838m-0.064 1.642m3.128-3.662 9.257 4.735-8.108-5.303m-1.149 0.568m2.682-2.967 9.32 1.515-9.767-2.651m0.447 1.136m2.745-4.734 10.087-0.253-9.895-0.82m-0.192 1.073m0.702-6.124 11.3-2.21-10.087 1.01m-1.213 1.2m-0.766-6.123 13.15-4.925-11.937 3.599m-1.213 1.326m0.319-6.061 11.172-6.944-13.15 6.881m1.978 0.063m0-6.881 9.704-8.396-10.534 7.575"/>
<path d="m148.82 12.767c2.308-3.295 4.237-6.919 5.02-9.403 3.128 8.501-0.928 12.394-2.873 16.414m-2.147-7.01m2.531 12.439c3.139-2.778 6.414-5.556 8.746-8.333 0.763 8.251-2.614 10.286-5.682 13.067m-3.064-4.734m1.085 8.838c2.873-2.187 6.191-3.16 10.15-3.851-1.103 3.213-2.63 6.564-7.15 8.901m-3-5.05m2.617 7.954c2.681-0.926 5.302-1.97 8.682-1.515-1.896 3.679-5.098 5.268-8.107 6.755m-0.575-5.24m-0.375 8.533c3.505-0.9 6.192-0.384 8.738 0.494-1.963 2.541-5.029 3.991-8.427 5.114m-0.311-5.608m0.439 7.943c2.277 0.13 4.554 0.842 6.83 2.4-2.333 3.026-5.339 2.623-8.44 2.71m1.61-5.11m-1.66 7.387c2.721 0.896 5.086 1.955 5.618 3.85-1.699 0.626-2.221 1.371-7.78 0.724m2.162-4.574m-1.465 8.333c2.145 1.18 2.443 1.345 2.423 4.166-1.799 0.559-2.755 0.76-4.961-0.128m2.538-4.038m-5.509 6.186c3.143 2.196 1.902 3.51 2.058 4.924-2.54-0.135-3.466 1.225-5.5-1.504m3.442-3.42m-4.645-5.808-7.405-5.366m7.405 5.366m7.023-3.409-9.065-3.409m9.065 3.41m6.384-6.125-16.024-1.893m16.024 1.894m1.163-7.828-16.025 0.357m16.025-0.357m0.135-8.839-13.271 3.126m13.271-3.125m-1.129-17.812-13.181 8.303m13.181-8.303m2.302 8.66-12.91 5.401"/>
<path d="m126.45 75.457 8.334 14.396c0.728 1.456 3.091 1.296 5.2 1.386 1.586-1.93 1.877-3.86 1.056-5.789l-9.802-13.402-4.788 3.41z"/>
<path d="m129 75.71 6.384 8.585-6.192-10.353m-0.192 1.768m10.597 9.91c1.387 2.214 0.796 2.821-0.383 4.61-2.328-0.6-2.69 0.721-4.213-2.336"/>
<path d="m120.7 78.109 4.712 13.728c1.621 2.19 3.242 1.657 4.864 2.37 2.159-2.018 2.865-4.184 2.62-4.855l-6.706-13.832-5.49 2.589z"/>
<path d="m123.26 78.55 4.596 8.902-3.32-9.66m-1.276 0.759m7.98 10.1c0.647 0.972 0.352 2.374-1.213 4.356-1.406-0.749-3.596-0.536-3.766-2.967"/>
<path d="M120.897 78.298l1.734 11.423c-.142 1.235-2.07 2.218-3.84 3.223-1.297-.797-2.94-.738-3.81-2.59l-.723-11.551 6.639-.505z"/>
<path d="m115.84 88.124c0.124 3.262 1.63 2.524 2.8 3.507 1.481-1.283 3.428-0.883 2.787-3.713m-5.587 0.206m0.889-8.459 1.374 7.43 0.094-7.35"/>
<path d="M129.259 34.045c4.23-3.38 7.321-7.019 8.427-11.11 3.331 4.755 1.705 9.51-1.915 14.266 2.284-1.445 4.618-2.1 7.022-1.641.047 3.69-2.363 5.296-3.83 7.701 2.125-.394 4.248-.764 6.256 1.516-.335 1.57-2.297 4.57-5.107 5.555 1.617.118 3.234.781 4.851 3.03-1.623 1.922-3.378 3.284-5.362 3.662 1.21.733 2.466 1.11 3.447 3.661-1.266 1.546-2.863 2.325-4.852 2.68.734 1.082 1.718 1.633 1.66 4.39-2.879 1.658-4.39 1.052-5.745.995.522 1.571.625 3.406-.173 5.808-1.814-.088-3.812.113-5.062-.869.582 1.69-.35 3.08-.894 4.546-2.038-.005-3.779-.178-4.753-1.352.284 1.43-.871 2.951-2.014 4.382-1.77-.407-3.733-.602-4.468-2.146-.397 1.524-2.009 2.327-3.575 3.156-1.694-.526-3.235-1.488-3.62-2.838-.652 1.275-1.945 2.285-4.041 2.964-1.117-.918-2.78-2.005-2.71-3.35l3.093-10.286 14.529-6.014 2.54-8.82-2.57-10.055 8.866-9.831z"/>
<path d="m109.64 79.487 0.451-8.749m-0.451 8.75m7.087-0.224-1.174-8.124m1.174 8.124m6.591-2.41-3.34-7.142m3.34 7.142m5.733-2.947-5.327-7.097m5.327 7.098m5.01-5.134-5.913-3.883m5.913 3.883m4.334-5.401-9.254-1.875m9.254 1.875m1.219-6.383-8.802-0.18m8.802 0.18m0.677-6.689-11.737 1.957m11.738-1.958m-1.4-6.97-7.584 3.482m7.584-3.482m-2.98-6.294-7.538 5.67m7.538-5.67m-28.845 34.104-0.542 5.49 1.806-5.356m-1.264-0.134m-3.019 6.382c-0.307 1.28 0.197 1.8 1.665 3.17 1.144-0.709 2.821-0.76 3.048-2.366m-4.713-0.804m8.12-7.141 0.722 6.16 0.542-5.535m-1.264-0.625m4.966-0.089 1.986 4.82-1.264-5.98m-0.722 1.16m5.055-0.893 2.708 4.375-2.076-4.821m-0.632 0.446m-11.317 9.048c-0.29 1.408 1.252 1.792 2.199 2.513 0.9-0.77 2.58-1.382 2.47-2.461m-4.669-0.052m6.599-0.181c1.077 1.55 2.153 1.092 3.23 1.623 0.526-0.993 1.823-1.77 1.29-3.062m-4.52 1.439m6.524-2.271c0.57 1.171 2.148 0.633 3.25 0.903 0.18-1.017 1.023-2.034 0.505-3.051m-3.755 2.148m1.332-10.357 4.471 3.961-3.351-4.059m-1.12 0.098m4.435 7.006c0.81 1.024 2.459 0.67 3.594 0.7-0.044-1.031 0.432-2.708-0.295-3.592m-3.299 2.892m0.649-35.884 3.83-3.978-3.894 5.303m0.064-1.326m-1.916 8.271 6.958-3.915-6.128 4.23m-0.83-0.316m2.682 3.472 6.256-1.452-6.639 2.273m0.383-0.82m3.192-11.869c2.296-2.826 4.821-5.559 3.447-10.858-0.546 1.138-1.39 2.797-2.362 3.85m-1.085 7.008m0.83 2.399c4.108-2.552 4.352-2.255 6.32-2.083-1.145 2.57-0.88 2.46-3.767 5.366m-2.553-3.283m3.255 5.808c1.596-0.534 3.257-0.496 5.362 0.315-1.031 1.879-2.67 3.025-4.468 3.725m-0.894-4.04m-7.405 8.838 6.703 0.126-6.256 0.947m-0.447-1.073m7.724-1.768c2.17-0.494 2.927 0.152 4.213 1.389-0.556 0.854-0.681 1.857-3.639 2.651m-0.574-4.04m-0.702 6.187c2.598 0.795 2.802 1.216 3.383 2.525-1.262 0.715-1.702 1.78-4.021 1.389m0.638-3.914m-8.938 0.442 6.128 1.2-7.213-0.253m1.085-0.947m0.32 4.671 5.107 1.957-5.235-1.136m0.128-0.82m6.894 0.694c2.285 0.941 1.817 1.581 2.234 2.967-1.237 0.626-1.13 1.004-4.245 0.694"/>
<path d="M106.478 59.132c4.74 6.256 12.238 2.232 12.956-2.812.424-5.047-7.433-4.316-3.476-10.847l13.452-14.374c1.587 5.99 1.445 11.037-3.737 14.016 2.487.08 5.276-.255 5.633 1.608.343 3.02-2.244 4.21-3.657 5.29.977.306 2.325.207 4.108 2.745-.734 2.124-1.92 3.96-4.334 4.422.733.602 1.878.422 2.077 4.952-2.288 1.544-4.01 1.547-5.625 1.26-.009 1.255.077 2.5-1.417 3.918-3.95.746-3.421.016-4.618-.145-.957.823-1.213 1.746-3.237 2.418-1.933-.687-2.173-1.374-3.027-2.061-1.112.687-.905 1.483-3.834 2.02-2.28-1.306-1.814-2.118-2.413-3.122-.986.388-1.509 1.005-3.429.931-2.074-2.217-.392-3.7-.165-5.237l1.764-5.428 2.979.446z"/>
<path d="M105.32 68.418l1.564-4.545m-1.564 4.545zM111.576 69.523l.415-4.356m-.415 4.356zM108.927 65.988l.415-1.515m-.415 1.515zM114.481 66.114l-.255-1.23m.255 1.23zM117.896 69.081l-1.34-4.261m1.34 4.261zM123.903 65.382l-2.663-2.947m2.663 2.947zM127.423 59.132l-3.25-.402m3.25.402zM127.649 52.035l-4.198 1.473m4.198-1.474zM121.555 48.865c1.226-1.524 2.566-2.863 4.153-3.794m-4.153 3.794zM125.13 37.292l3.866-4.058c-.005 5.66-.742 7.496-2.483 9.82m-1.383-5.762zM126.103 46.32c1.203-.112 2.504-.55 4.028.447.238 2.115-1.125 3.13-2.254 3.84m-1.774-4.286zM127.153 53.15c.728.192 2.097.106 3.205 1.83-.348 1.814-1.434 2.26-2.438 2.858m-.767-4.687zM127.288 60.293c.553.68 1.232.986 1.219 3.348-1.456.91-2.767 1.288-3.882.937m2.663-4.285zM118.712 63.239l.677 1.116m-.677-1.116zM122.647 65.382c.112.58.662 1.713-.82 3.035-2.354.658-2.419-.038-3.386-.61m4.206-2.426zM116.837 68.101c.21 1.269-1.326 1.675-2.188 2.414-.782-.608-1.898-.358-2.302-1.941m4.49-.473zM110.631 69.087c-.498.442-.933.889-2.753 1.25-.775-.729-1.495-1.457-1.517-2.186m4.27.936zM104.853 67.614c-.55.537-1.282.859-2.257.892-.913-.662-.824-1.325-.93-1.988m3.187 1.095zM124.12 40.926c-1.79 1.934-5.554 4.225-4.564 5.145 1.41.503 3.032-3.556 4.564-5.145zM126.089 48.86c-1.57.944-4.517 1.735-4.046 2.55.831.62 2.715-1.787 4.046-2.55zM126.926 55.854c-1.529.091-4.017-.389-3.987.312.375.694 2.705-.26 3.987-.312zM125.341 62.722c-1.189-.955-2.694-2.972-3.15-2.435-.2.761 2.17 1.617 3.15 2.435z"/>
<path d="M83.974 46.718l20.451 11.786c3.098.453 2.597 7.104 6.007 8.68-2.04 1.727-3.6.346-5.293-.183 4.178 2.245 2.195 12.429 5.02 15.788-2.607.102-3.739-1.714-4.498-4.015-.12 4.855-3.13 10.755.906 14.108-.451.404-1.186.5-2.718-.268 2.032 4.69 4.963 3.853 7.905 2.947l-1.19 1.084c13.673 3.563 1.487 13.942 10.536 15.143-3.435 2.931-5.79 2.2-7.442-.907.103 2.086-1.284 4.171.669 6.257-.887.151-1.924-.125-3.68-2.449a9.703 9.703 0 0 0 .586 2.449c-.78-.688-1.561-1.235-2.342-2.72-.47 1.413-.302 2.689-.25 3.99-2.146-.125-2.29-2.573-3.011-4.353.005 1.24-1.4 2.641-1.505 3.99-1.36-1.088-.683-2.177-.753-3.265-3.175 5.034-7.513.083-7.442-.997 10.215.973 4.33-9.503-.92-7.708-.87.148-4.891 1.915-5.247 9 .248 1.86 2.545 2.79 3.898 3.089 2.56 1.094 1.828 3.338 1.516 3.87-.36-1.606-2.217-2.297-5.1-2.357H77.832c-2.884.06-4.74.75-5.101 2.358-.312-.533-1.043-2.777 1.516-3.871 1.353-.3 3.65-1.229 3.898-3.088-.356-7.086-4.377-8.853-5.247-9-5.25-1.796-11.135 8.68-.92 7.707.071 1.08-4.267 6.031-7.442.997-.07 1.088.608 2.177-.753 3.265-.105-1.349-1.51-2.75-1.505-3.99-.72 1.78-.865 4.228-3.01 4.352.051-1.3.22-2.576-.25-3.99-.781 1.486-1.562 2.033-2.342 2.72a9.699 9.699 0 0 0 .585-2.447c-1.756 2.323-2.793 2.599-3.68 2.448 1.953-2.086.566-4.171.67-6.257-1.653 3.108-4.008 3.838-7.443.907 9.05-1.201-3.137-11.58 10.537-15.143l-1.19-1.084c2.941.906 5.872 1.742 7.904-2.946-1.532.768-2.266.671-2.717.267 4.034-3.353 1.026-9.253.906-14.108-.76 2.301-1.892 4.117-4.498 4.015 2.824-3.36.841-13.543 5.02-15.788-1.693.529-3.254 1.91-5.293.183 3.41-1.576 2.909-8.227 6.006-8.68l20.49-11.786z"/>
<path d="m79.642 108.8c-3.247-2.066-3.86-5.95-5.55-9.09"/>
<path d="M85.487 118.296h-2.864c.77 7.184-5.041 17.105-4.177 27.497.177 5.361 3.253 7.088 5.425 8.513h.37c2.17-1.425 5.246-3.152 5.423-8.513.865-10.391-4.946-20.313-4.177-27.497z"/>
</g>
<g stroke-width=".282">
<path d="m85.799 117.62c0.292 8.827 5.843 15.107 7.222 22.61 0.178 3.902-1.587 7.091-5.845 6.403 4.546 7.714 12.37 3.772 13.47-2.651-0.205-4.658-0.195-7.699-12.072-22.674z"/>
<path d="m88.153 114.37-2.102 2.657c-0.015 4.42 15.027 11.478 14.581 16.719-0.625 1.11-0.95 2.041-3.836 1.623 0.968 3.58 3.491 4.146 7.469 1.894 0.24 2.16 1.783 4.639-5.937 4.86-1.827 0.668-1.568 2.253-1.277 3.851 1.57-2.316 4.135 1.998 7.916 1.768 4.855 0.08 5.715-5.16 6.192-7.45 0.909 4.88 1.99 5.308 3.065 5.935-0.515-0.497-0.42-1.65-0.068-2.146 2.986-2.972 4.929-6.07-0.315-10.038 4.744-4.883-0.928-7.653-2.299-7.954 0.426 1.991 0.385 4.383-2.309 4.293-2.102-0.04-3.12-3.38-8.63-5.489-10.218-3.616-9.563-6.168-12.45-10.523z"/>
<path d="m84.065 148.31 0.023-28.028" fill="none"/>
<path d="m80.787 139.85c-0.932 7.47 0.294 11.384 3.448 12.12"/>
<path d="m93.044 147.36c6.232-6.957 1.06-14.092-3.064-21.211m3.064 21.211m10.199-3.414c7.939-3.253 4.033-14.634-8.983-20.087" fill="none"/>
<path d="m98.593 137.16c2.532 0.655 3.095-0.832 4.559-1.34m-4.56 1.34m10.113-4.821c0.684 0.152 1.18 0.024 1.625-0.179m-1.625 0.179m2.573 0.982c1.504-0.47 2.71-1.303 2.663-3.66"/>
<path d="m110.96 134.26 2.934-0.268" fill="none"/>
<path d="m110.01 135.42c3.18 1.263 4.16 3.157 3.611 5.49m-3.611-5.49m1.85 4.776c-0.296-1.25-0.934-1.31-1.986-1.92 0.568 5.228-2.86 8.008-3.566 7.991m5.552-6.071m-29.47-22.575c-0.292 8.827-5.843 15.107-7.222 22.61-0.177 3.902 1.587 7.091 5.845 6.403-4.545 7.714-12.37 3.772-13.47-2.651 0.205-4.658 0.195-7.699 12.073-22.674l2.775-3.688z"/>
<path d="m80.04 114.37 2.102 2.657c0.015 4.42-15.027 11.478-14.581 16.719 0.626 1.11 0.951 2.041 3.837 1.623-0.969 3.58-3.492 4.146-7.47 1.894-0.24 2.16-1.782 4.639 5.938 4.86 1.827 0.668 1.567 2.253 1.276 3.851-1.57-2.316-4.134 1.998-7.916 1.768-4.855 0.08-5.715-5.16-6.192-7.45-0.909 4.88-1.99 5.308-3.064 5.935 0.515-0.497 0.42-1.65 0.067-2.146-2.986-2.972-4.929-6.07 0.316-10.038-4.745-4.883 0.928-7.653 2.298-7.954-0.425 1.991-0.385 4.383 2.31 4.293 2.101-0.04 3.12-3.38 8.63-5.489 10.218-3.616 9.562-6.168 12.45-10.523zm7.366 25.478c0.932 7.47-0.294 11.384-3.447 12.12"/>
<path d="m75.149 147.36c-6.232-6.957-1.06-14.092 3.064-21.211m-3.063 21.211m-10.2-3.414c-7.938-3.253-4.032-14.634 8.984-20.087" fill="none"/>
<path d="m69.6 137.16c-2.532 0.655-3.095-0.832-4.56-1.34m4.56 1.34m-10.111-4.821c-0.684 0.152-1.18 0.024-1.625-0.179m1.625 0.179m-2.573 0.982c-1.505-0.47-2.71-1.303-2.664-3.66"/>
<path d="m57.231 134.26-2.934-0.268" fill="none"/>
<path d="m58.18 135.42c-3.18 1.263-4.16 3.157-3.612 5.49m3.611-5.49m-1.85 4.776c0.296-1.25 0.934-1.31 1.986-1.92-0.568 5.228 2.86 8.008 3.566 7.991"/>
</g>
<g stroke-width=".282">
<path d="m89.265 105.05c-1.023 4.614 2.313 2.69-5.049 16.812h-0.175c-7.362-14.123-4.026-12.198-5.05-16.812"/>
<path d="M77.197 99.514c-.329 1.663.3 3.326.523 4.988-.582-.902-1.164-2.067-1.746-4.798m1.223-.19zM74.867 107.028c-1.533-.986-3.066-4.374-4.6-6.882m4.6 6.882zM73.295 100.966c-.092 1.131.938 2.379 1.456 3.662-1.023-1.025-2.14-2.11-2.387-3.473m.931-.189zM57.283 96.672c1.928.924 3.796 2.13 6.172.947m-6.172-.947zM66.233 97.254c-2.291 1.916-2.724.797-7.028 6.175 6.431-.108 6.168-1.772 8.734-2.778-2.048 2.06-4.234 3.223-5.998 7.135 3.9-2.037 9.018-4.868 11.884-1.454"/>
<path d="m63.455 99.135c-2.366 0.167-4.052 0.42-6.172-2.526"/>
<path d="m58.68 98.189c-4.412 2.248-3.447 4.063-3.959 5.998 1.991-0.699 3.886-1.363 5.415-1.894"/>
<path d="m61.883 100.46c-1.145-0.435-2.29 0.217-3.435 0.379 0.553-0.422 0.468-0.684 2.911-1.579m0.524 1.2m-7.744 10.733c-1.204-2.88-2.154-5.803 0.757-9.345"/>
<path d="m53.498 109.62c-0.25 1.066-0.515 2.13-1.98 3.03m1.98-3.03m10.947 5.115c-1.286-2.313-1.756-4.694 1.559-9.003m-1.559 9.003m-2.195-0.442c-0.218-2.074-1.376-3.95 1.026-7.287m-4.308 7.454c-0.56-1.897-0.496-3.715 0.024-5.158"/>
<path d="m62.058 107.34c-1.903 0.635-3.048 1.928-4.193 3.22-0.35-2.492-0.05-4.914 2.679-7.072"/>
<path d="m61.415 107.66c-1.308 1.467-0.947 3.115-1.276 4.688m1.276-4.688m-3.294-0.938c-0.739 0.768-1.469 1.706-2.1 4.465-2.487-2.396-1.841-4.792-0.988-7.189"/>
<path d="m59.192 103.46c-1.328 0.479-1.94 1.423-2.759 2.232 0.412-0.878 0.618-1.756 1.647-2.634m1.112 0.402m4.898-10.854c4.512-2.13 2.322-8.255 2.677-12.854m-2.017 7.904c0.019-1.65 0.06-3.231-0.247-5.001m0.247 5m-0.947 8.171c0.964-1.101 2.004-1.782 2.868-3.863"/>
<path d="M59.684 52.603c2.777 3.629 4.91 1.393 9.409-1.815-5.204.948-6.675-1.334-6.393-3.691 6.967 4.061 4.891-7.569 4.613-11.816l6.681-13.905 5.341 5.87c7.013 10.564 4.472 14.047 4.58 22.103l-.476 9.958c-.343 3.815-1.182 7.627-3.045 8.145.492-2.663-.982-3.024-1.736-7.61-.983 3.475-3.13 6.427-4.985 6.6.586-2.91.445-4.66-.444-6.347-4.476 4.39-8.035 3.554-9.347 3.597-.16-.77 2.791-1.788 3.713-4.063-4.073 1.52-9.83 1.37-7.911-7.026z"/>
<path d="M62.94 55.676c-2.073.217-2.35-.656-2.883-1.508-.286 2.194.235 4.077 1.494 4.44m1.389-2.932zM68.717 50.868c4.466-1.513 3.375-8.313 4.034-12.867.843 3.639 1.564 7.437 1.39 12.397.886-5.345 1.247-11.99.696-16.669 1.351.896 2.485 4.029 3.167 6.534.014-2.569-.125-5.138-.927-7.706 3.07 5.29 4.963 10.973 6.72 18.511m-15.08-.2z"/>
<path d="m67.499 59.696c6.035-2.84 5.23-9.007 6.565-14.742m-6.564 14.742m5.638 0.586c2.435-3.523 4.226-8.075 5.02-14.49m-5.02 14.49m5.484-0.335c2.358-5.001 1.917-10.103 1.297-15.535"/>
<path d="m75.377 56.43c0.267-3.453 0.493-7.1-0.463-11.979"/>
<path d="m70.048 58.188c-0.036-0.218 2.824 0.266 5.561-7.79m-5.561 7.79m0.112-19.015c0.805 2.784 1.17 7.598 0.274 10.606"/>
<path d="m67.371 50.288c1.175 0.3 3.743-2.884 3.628-4.707m-3.628 4.707m1.672 3.461c1.43-1.085 2.08-2.382 2.704-3.686m-2.704 3.686m10.5-15.966c0.527 5.447 0.147 8.786-0.149 13.118-0.942-4.83-2.143-7.383-4.315-12.213m4.465-0.905m0.116 19.566c1.34-2.771 3.114-4.808 3.144-9.787m-3.144 9.788m-2.038-8.02c0.868 5.32 0.113 9.468-0.35 13.828"/>
</g>
<path d="m74.81 33.65c-0.845-1.774-2.025-3.257-3.418-4.554m3.418 4.554m-1.32-5.177c0.971 1.603 2.892 1.932 3.666 4.284" fill="none" stroke-width=".282"/>
<g>
<path d="m65.817 62.957c2.046-0.34 3.848-1.212 5.454-2.508m-5.454 2.508m8.923 2.061c1.276-0.811 1.808-2.267 1.984-4.032m-1.983 4.032m6.528 0.627c1.1-2.15 1.232-5.353 1.487-8.422" stroke-width=".282"/>
<path d="m72.668 38.345c0.132-1.991-0.16-3.923-0.725-5.819" stroke-width=".282"/>
<g stroke-width=".282">
<path d="m73.881 79.459c-2.474 4.491 0.5 13.63-7.542 12.387 1.265-1.787 2.203-4.814 0.708-8.212"/>
<path d="m80.824 79.444c-3.709 4.22-1.341 13.141-8.725 11.876 1.913-1.597 1.412-4.196 0.911-8.174"/>
<path d="m87.577 79.716c-0.689 3.273 1.557 1.908-3.4 11.924h-0.118c-4.958-10.016-2.711-8.651-3.4-11.924m6.918 0m-25.371-0.916c0.444-4.436 3.848-6.452 3.966-9.678"/>
<path d="m71.543 69.48c-2.772 2.274-1.292 9.128-6.115 10.484 0.494-2.678 0.499-5.268-0.323-7.708"/>
<path d="m76.112 69.976c-1.416 3.53 1.498 9.563-4.486 10.078 1.098-2.808-0.65-5.615-1.334-8.423"/>
<path d="m80.674 69.723c-0.413 3.375 1.395 6.687-1.53 10.062-0.487-2.92-2.114-4.914-3.417-7.172"/>
<path d="m87.479 67.461c-0.689 3.273 1.557 1.908-3.4 11.925h-0.118c-4.958-10.017-2.711-8.652-3.4-11.925m6.918 0m-18.256 24.437c-0.181 1.834-1.33 3.65-3.459 5.715 4.215 0.568 5.278-2.987 8.314-3.921-0.227 4.463-2.413 5.273-2.887 6.156 5.56 0.753 5.779-4.498 7.624-6.265-1.588 3.011 1.391 7.23-0.229 11.55 6.106-2.166 4.063-11.218 5.623-13.681m-14.986 0.446m-0.903-28.51c-0.293 4.087-2.621 5.104-2.892 5.914 7.157-1.345 6.696-2.433 8.511-6.004m-5.619 0.09m-5.61 3.638c2.203-1.131 2.565-2.3 3.795-3.431m9.222 1.607c0.606 1.911 0.136 3.589-0.33 5.268 2.06-1.47 3.73-3.444 4.694-6.34m-4.364 1.072m-16.754 2.017c1.777 0.118 4.076-1.71 5.681-2.713"/>
<path d="m68.043 67.927c4.217-1.092 3.954-3.516 5.374-5.701m-5.374 5.701m8.59 0.127c1.643-1.236 1.835-2.787 2.745-4.182m-2.745 4.182m-3.799 10.771c2.939-1.784 1.437-4.47 2.103-6.716m-2.103 6.716m-6.194-0.507c2.53-2.998 1.948-5.575 2.922-8.363m-2.921 8.363m-7.128 2.915c2.675-2.344 1.552-4.53 3.8-8.247m-3.8 8.247m19.865-3.549c1.524-2.41-0.135-4.201-0.058-7.54m0.058 7.54m2.046-7.531c0.297 3.81 1.77 5.81 2.628 7.658 0.344-0.723 2.639-5.001 2.51-7.785m-5.138 0.127m0.095 12.56c0.346 2.451 1.243 4.829 2.65 7.136 1.219-1.916 1.933-4.517 2.633-7.136m-5.284 0m-7.749 7.897c4.143-0.741 3.11-6.228 4.906-8.931m-4.906 8.93m-5.493 0.508c2.893-0.672 3.385-4.821 3.505-6.777m-3.505 6.776m1.286-8.616c0.798-2.535 0.77-5.637 0.818-8.172m-0.818 8.172m5.844-0.259c0.922-2.268 0.99-4.35 1.167-6.457m-1.167 6.457m-13.802 20.264c1.946-0.058 3.891-1.46 5.837-3.127m-5.837 3.127m3.165 2.592c1.643-0.905 3.138-1.948 6.047-1.678m-6.048 1.678m4.923-6.711c1.847-0.524 2.965-2.432 4.079-4.346m-4.079 4.346m-1.899-1.83c2.165-0.234 2.993-2.593 5.978-3.89m-5.978 3.89m5.626 2.212c2.5-0.47 3.079-4.068 4.571-6.177m-4.57 6.177m6.61 4.423c2.825-3.156 1.922-7.83 2.883-11.744m-2.883 11.744m-0.211-12.811c0.929-2.3-0.202-6.532 0.562-9.914m-0.562 9.913m0.281 6.635c-0.725-2.033 0.957-3.99 1.125-6.024m-1.124 6.024m9.188 11.782c3.38-2.15 3.439-5.892 5.298-9.092m-5.298 9.092m1.998-9.282c0.328 1.663-0.3 3.326-0.524 4.988 0.582-0.902 1.164-2.067 1.746-4.798m-1.222-0.19m2.13 7.353c1.533-0.986 3.712-4.212 5.246-6.72m-3.028 0.819c0.092 1.131-0.938 2.379-1.455 3.662 1.022-1.025 2.14-2.11 2.387-3.473m-0.932-0.189m14.983-4.294c-1.928 0.924-3.661 2.13-6.037 0.947m-2.911-0.251c2.291 1.916 2.857 0.683 7.162 6.061-6.432-0.108-6.168-1.772-8.734-2.778 2.048 2.06 4.234 3.223 5.997 7.135-3.9-2.037-8.669-5.083-11.534-1.67"/>
<path d="m104.58 99.135c2.366 0.167 3.97 0.42 6.091-2.526"/>
<path d="m109.36 98.189c4.412 2.248 3.448 4.063 3.96 5.998-1.992-0.699-3.887-1.363-5.416-1.894"/>
<path d="m106.15 100.46c1.145-0.435 2.29 0.217 3.435 0.379-0.553-0.422-0.468-0.684-2.91-1.579m-0.525 1.2m7.745 10.733c1.204-2.88 2.154-5.803-0.757-9.345"/>
<path d="m114.54 109.62c0.25 1.066 0.515 2.13 1.98 3.03m-1.98-3.03m-11.107 5.115c1.286-2.313 2.079-4.91-1.236-9.218m3.456 8.776c0.218-2.074 1.565-3.735-0.837-7.072m4.066 7.239c0.56-1.897 0.684-3.715 0.164-5.158"/>
<path d="m105.98 107.34c1.903 0.635 3.047 1.928 4.192 3.22 0.351-2.492 0.051-4.914-2.678-7.072"/>
<path d="m106.62 107.66c1.308 1.467 0.947 3.115 1.276 4.688m-1.276-4.688m3.294-0.938c0.739 0.768 1.469 1.706 2.1 4.465 2.487-2.396 1.841-4.792 0.988-7.189"/>
<path d="m108.84 103.46c1.327 0.479 1.94 1.423 2.758 2.232-0.411-0.878-0.618-1.756-1.646-2.634m-1.112 0.402m-4.926-10.814c-4.511-2.13-2.295-8.295-2.65-12.894m2.018 7.904c-0.019-1.65-0.06-3.231 0.247-5.001m-0.247 5m0.947 8.171c-0.964-1.101-2.018-1.796-2.881-3.876"/>
<path d="M108.351 52.603c-2.777 3.629-4.91 1.393-9.409-1.815 5.204.948 6.675-1.334 6.393-3.691-7.099 4.061-5.41-7.912-4.976-12.16L94.04 21.377 88.58 27.2c-6.085 10.565-4.015 14.092-4.46 22.148l.476 9.958c.343 3.815 1.181 7.627 3.045 8.145-.492-2.663.982-3.024 1.736-7.61.983 3.475 3.13 6.427 4.984 6.6-.585-2.91-.444-4.66.445-6.347 4.476 4.39 8.035 3.554 9.347 3.597.16-.77-2.791-1.788-3.713-4.063 4.072 1.52 9.83 1.37 7.911-7.026z"/>
<path d="M105.095 55.676c2.073.217 2.35-.656 2.883-1.508.286 2.194-.235 4.077-1.494 4.44m-1.389-2.932zM99.319 50.868c-4.467-1.513-3.376-8.313-4.035-12.867-.843 3.639-1.563 7.437-1.39 12.397-.886-5.345-1.247-11.99-.696-16.669-1.35.896-2.485 4.029-3.167 6.534-.014-2.569.125-5.138.927-7.706-3.07 5.29-4.963 10.973-6.72 18.511m15.08-.2z"/>
<path d="m100.54 59.696c-6.036-2.84-5.23-9.007-6.566-14.742m6.566 14.742m-5.639 0.586c-2.435-3.523-4.227-8.075-5.02-14.49m5.02 14.49m-5.484-0.335c-2.359-5.001-1.917-10.103-1.298-15.535"/>
<path d="m92.658 56.43c-0.266-3.453-0.493-7.1 0.463-11.979"/>
<path d="m97.988 58.188c0.036-0.218-2.824 0.266-5.562-7.79m5.562 7.79m-0.113-19.015c-0.805 2.784-1.17 7.598-0.274 10.606"/>
<path d="m100.66 50.288c-1.175 0.3-3.743-2.884-3.628-4.707m3.628 4.707m-1.672 3.461c-1.43-1.085-2.08-2.382-2.703-3.686m2.703 3.686m-10.5-15.966c-0.527 5.447-0.146 8.786 0.15 13.118 0.942-4.83 2.142-7.383 4.315-12.213m-4.465-0.905m-0.117 19.566c-1.339-2.771-3.114-4.808-3.144-9.787m3.144 9.787m2.038-8.019c-0.867 5.32-0.112 9.468 0.35 13.828"/>
</g>
</g>
<path d="m93.225 33.65c0.845-1.774 2.025-3.257 3.418-4.554m-3.418 4.554m1.321-5.177c-0.972 1.603-2.893 1.932-3.667 4.284" fill="none" stroke-width=".282"/>
<g>
<path d="m102.22 62.957c-2.046-0.34-3.848-1.212-5.454-2.508m5.454 2.508m-8.924 2.061c-1.275-0.811-1.807-2.267-1.983-4.032m1.983 4.032m-6.528 0.627c-1.101-2.15-1.233-5.353-1.487-8.422" stroke-width=".282"/>
<path d="m95.367 38.345c-0.132-1.991 0.16-3.923 0.725-5.819" stroke-width=".282"/>
<g stroke-width=".282">
<path d="m94.154 79.459c2.474 4.491-0.5 13.63 7.542 12.387-1.264-1.787-2.202-4.814-0.708-8.212"/>
<path d="M87.212 79.444c3.708 4.22 1.34 13.141 8.724 11.876-1.912-1.597-1.412-4.196-.91-8.174m-7.814-3.702zM105.655 78.8c-.444-4.436-3.673-6.452-3.791-9.678"/>
<path d="m96.493 69.48c2.771 2.274 1.292 9.128 6.114 10.484-0.493-2.678-0.498-5.268 0.324-7.708"/>
<path d="m91.924 69.976c1.415 3.53-1.498 9.563 4.486 10.078-1.099-2.808 0.65-5.615 1.333-8.423"/>
<path d="m87.362 69.723c0.412 3.375-1.396 6.687 1.529 10.062 0.487-2.92 2.114-4.914 3.417-7.172m-4.946-2.89m11.45 22.175c0.182 1.834 1.33 3.65 3.459 5.715-4.215 0.568-5.278-2.987-8.314-3.921 0.227 4.463 2.413 5.273 2.887 6.156-5.56 0.753-5.779-4.498-7.623-6.265 1.587 3.011-1.392 7.23 0.228 11.55-6.106-2.166-4.062-11.218-5.623-13.681m14.986 0.446m0.903-28.51c0.293 4.087 2.621 5.104 2.892 5.914-7.157-1.345-6.696-2.433-8.511-6.004m5.619 0.09m5.515 3.657c-2.203-1.131-2.47-2.32-3.699-3.45m-9.223 1.607c-0.606 1.911-0.135 3.589 0.33 5.268-2.06-1.47-3.73-3.444-4.694-6.34m4.364 1.072m16.755 2.017c-1.778 0.118-4.076-1.71-5.681-2.713"/>
<path d="m99.993 67.927c-4.218-1.092-3.955-3.516-5.374-5.701m5.374 5.701m-8.591 0.127c-1.642-1.236-1.834-2.787-2.744-4.182m2.744 4.182m3.8 10.771c-2.94-1.784-1.437-4.47-2.104-6.716m2.104 6.716m6.193-0.507c-2.529-2.998-1.948-5.575-2.921-8.363m2.921 8.363m7.128 2.915c-2.675-2.344-1.552-4.53-3.8-8.247m3.8 8.247m-19.865-3.549c-1.525-2.41 0.135-4.201 0.057-7.54m-0.057 7.54m5.608 12.926c-4.143-0.741-3.11-6.228-4.906-8.931m4.906 8.93m5.493 0.508c-2.893-0.672-3.385-4.821-3.504-6.777m3.504 6.776m-1.285-8.616c-0.798-2.535-0.77-5.637-0.818-8.172m0.818 8.172m-5.844-0.259c-0.922-2.268-0.99-4.35-1.167-6.457m1.167 6.457m13.802 20.264c-1.946-0.058-3.891-1.46-5.837-3.127m5.837 3.127m-3.165 2.592c-1.644-0.905-3.139-1.948-6.048-1.678m6.048 1.678m-4.923-6.711c-1.846-0.524-2.964-2.432-4.078-4.346m4.078 4.346m1.899-1.83c-2.165-0.234-2.993-2.593-5.977-3.89m5.977 3.89m-5.626 2.212c-2.5-0.47-3.078-4.068-4.571-6.177m4.571 6.177m-6.61 4.423c-2.826-3.156-1.922-7.83-2.884-11.744m2.884 11.744m0.211-12.811c-0.93-2.3 0.201-6.532-0.563-9.914m0.563 9.913m-0.282 6.635c0.726-2.033-0.957-3.99-1.125-6.024m1.125 6.024m-7.171 6.944c0.246 1.361 1.026 3.565 3.232 8.022 1.377-2.4 2.72-5.244 3.366-8.115"/>
<path d="m86.656 103.05c-0.347 2.452-1.244 4.829-2.65 7.137-1.22-1.917-1.934-4.517-2.634-7.137m5.284 0m-2.695-23.295v5.268m-5.409-55.056c1.65 2.382 3.533 6.828 3.643 9.964m-3.643-9.964m11.013 0c-1.651 2.382-3.533 6.828-3.644 9.964"/>
</g>
</g>
<g stroke-width=".282">
<path class="B C" d="m74.81 33.65c-0.845-1.773-2.024-3.256-3.417-4.554m3.417 4.554m-1.321-5.177c0.972 1.602 2.893 1.931 3.667 4.283"/>
<path class="B C" d="m52.522 13.907c-0.844 0.289-2.925 0.874-2.782 3.199l0.704 1.971 12.089 7.993c1.721 0.549 3.557 0.959 4.374 2.596 1.275 2.198 0.402 4.275 0.058 6.381 1.338-0.838 2.528-1.772 2.599-3.425l1.048 3.114c0.942-1.455 0.894-2.583 0.919-4.072l1.892 2.247c0.241-1.812-0.357-3.413-1.569-4.859l3.316 3.054-0.897-2.258c0.546 0.468 1.358 0.9 2.644 1.267 0.159-0.917-0.59-1.497-1.095-2.168 1.015 0.663 2.634 1.051 4.703 1.236l-2.645-2.081c0.837 0.445 2.359 0.141 3.847 0-3.255-1.643-5.536-5.176-8.869-7.08l4.533 1.886c-1.835-2.128-3.74-4.261-8.199-6.52l4.395-0.915c-1.71-0.177-2.394 0.1-5.382-0.642-8.679-1.61-10.001-2.228-15.683-0.924z"/>
<path class="B C" d="m55.42 21.092c3.343 0.222 2.853-1.946 3.888-2.857l1.963 0.409c-1.352-0.25-2.261-0.783-4.057-0.751-0.672 0.12-0.841 0.035-2.326 0.771l-2.549 1.122 2.625 1.589 0.456-0.282z" fill="#fff"/>
<path class="B C" d="m54.049 20.745c1.815 0.062 2.241-1.147 2.425-2.69-1.503 0.395-2.536 1.361-3.593 1.315z"/>
<path class="B C F" d="m43.45 25.976c-4.359-5.234-0.285-7.508 6.545-8.815 1.161 0.417 2.259 0.891 2.843 1.828 0.751 0.174 1.435-0.031 2.109-0.288-0.232 0.311 0.083 0.571-1.709 1.026 2.256 1.952 4.543 2.094 5.346 2.753 0.835 0.651 1.088 1.382 1.45 2.098 2.167 1.552 3.857 0.655 5.567 1.456 0.101 0.215 0.795 0.735-1.918 1.371-4.923 0.458-8.413 4.358-10.687 2.175 2.514-0.171 3.789-2.482 7.129-2.955-0.456-1.885-5.627-4.151-6.336-3.773-6.052 2.036-9.589-2.095-10.34 3.124z" fill="#eac102"/>
<path class="B C E" d="m59.961 26.608c-1.361-0.304-2.395-1.279-4.392-0.276-4.201 2.086-5.978 1.444-7.701 0.74 2.275-0.327 1.046 0.871 7.837-2.388 1.695-0.532 3.118 1.055 4.255 1.923z" fill="#ea1c24"/>
<path class="B C" d="m69.667 32.797c-0.083-1.107-0.674-2.788-1.648-4.097m1.648 4.097m6.557-3.591c-1.671-1.244-2.181-1.208-2.965-1.474m2.965 1.474m1.849-0.968c-1.572-0.82-4.008-3.313-5.926-4.052"/>
<path class="B C" d="m93.226 33.65c0.845-1.773 2.024-3.256 3.417-4.554m-3.417 4.554m1.32-5.177c-0.972 1.602-2.893 1.931-3.667 4.283"/>
<path class="B C" d="m115.55 13.907c0.844 0.289 2.925 0.874 2.781 3.199l-0.704 1.971-12.089 7.993c-1.721 0.549-3.557 0.959-4.374 2.596-1.275 2.198-0.402 4.275-0.058 6.381-1.338-0.838-2.528-1.772-2.599-3.425l-1.048 3.114c-0.942-1.455-0.894-2.583-0.919-4.072l-1.892 2.247c-0.241-1.812 0.357-3.413 1.57-4.859l-3.315 3.055 0.897-2.258c-0.546 0.468-1.358 0.9-2.644 1.267-0.16-0.917 0.59-1.497 1.094-2.168-1.015 0.663-2.634 1.051-4.703 1.236l2.645-2.081c-0.837 0.445-2.359 0.141-3.846 0 3.254-1.643 5.536-5.176 8.869-7.08l-4.533 1.886c1.835-2.128 3.74-4.261 8.199-6.52l-4.395-0.915c1.71-0.177 2.394 0.1 5.382-0.642 8.679-1.61 10.001-2.228 15.683-0.924z"/>
<path class="B C" d="m112.65 21.092c-3.343 0.222-2.853-1.946-3.888-2.857l-1.963 0.409c1.352-0.25 2.261-0.783 4.057-0.751 0.671 0.12 0.841 0.035 2.326 0.771l2.549 1.122-2.625 1.589-0.456-0.282z" fill="#fff"/>
<path class="B C" d="m114.02 20.745c-1.815 0.062-2.241-1.147-2.425-2.69 1.503 0.395 2.536 1.361 3.593 1.315z"/>
<path class="B C F" d="m124.62 25.976c4.359-5.234 0.285-7.508-6.545-8.815-1.161 0.417-2.259 0.891-2.843 1.828-0.751 0.174-1.435-0.031-2.109-0.288 0.232 0.311-0.083 0.571 1.709 1.026-2.256 1.952-4.543 2.094-5.346 2.753-0.835 0.651-1.088 1.382-1.45 2.098-2.167 1.552-3.857 0.655-5.567 1.456-0.101 0.215-0.795 0.735 1.918 1.371 4.923 0.458 8.413 4.358 10.687 2.175-2.514-0.171-3.789-2.482-7.129-2.955 0.456-1.885 5.627-4.151 6.336-3.773 6.052 2.036 9.589-2.095 10.34 3.124z" fill="#eac102"/>
<path class="B C E" d="m108.11 26.608c1.361-0.304 2.395-1.279 4.391-0.276 4.201 2.086 5.978 1.444 7.701 0.74-2.275-0.327-1.046 0.871-7.837-2.388-1.695-0.532-3.118 1.055-4.255 1.923z" fill="#ea1c24"/>
<path class="B C" d="m98.402 32.797c0.083-1.107 0.674-2.788 1.648-4.097m-1.648 4.097m-6.557-3.591c1.671-1.244 2.181-1.208 2.965-1.474m-2.965 1.474m-1.845-0.971c1.627-0.819 4.149-3.308 6.136-4.046"/>
</g>
</g>
</svg>